# xmcd
#
# Track frame offsets:
#	150
#	18089
#	34686
#	51308
#	71421
#	88506
#	106367
#	122571
#	140291
#	158798
#	175589
#
# Disc length: 2549 seconds
# Revision: 0
# Processed by: cddbd v1.5.2PL0 Copyright (c) Steve Scherf et al.
# Submitted via: dBpowerAMP V12.0
#
DISCID=8209f30b
DTITLE=The Kate Lush Band - Headline
DYEAR=2019
DGENRE=Blues
TTITLE0=Headline
TTITLE1=If You Don't Like It
TTITLE2=Jackson
TTITLE3=Goodbye To The Rain
TTITLE4=Rock That Won't Roll
TTITLE5=Weakness
TTITLE6=You Already Knew
TTITLE7=Fall Down Seven Times
TTITLE8=One Heart To Break
TTITLE9=How Will I Hold Out
TTITLE10=Sanctuary
EXTD=
EXTT0=
EXTT1=
EXTT2=
EXTT3=
EXTT4=
EXTT5=
EXTT6=
EXTT7=
EXTT8=
EXTT9=
EXTT10=
PLAYORDER=
